<?xml version="1.0" encoding="UTF-8"?><svg id="Warstwa_2" xmlns="http://www.w3.org/2000/svg" viewBox="0 0 988.61 1050.52"><defs><style>.cls-1{fill:#fff;}.cls-2{fill:#de9a08;}</style></defs><g id="Warstwa_1-2"><g><path class="cls-2" d="M265.46,473.24c-5.3-4.12-1.68-17.42,6-41,7.15-21.95,10.73-32.91,13-38,4.91-11.02,16.85-35.22,40-60,26.03-27.85,52.91-42.18,65-48,26.68-12.84,51.26-17.93,69-20,7.93-.92,34.84-3.62,69,3,35.53,6.88,59.89,20.15,65,23,5.37,2.99,22.34,12.75,41,30,20.27,18.73,32.43,36.96,38,46,10.98,17.8,15.98,32.53,26,62,10.54,31,10.49,40.3,6,44-1.9,1.57-3.94,1.24-12,1-9.33-.28-18.67,.38-28,0-17.75-.73-15.32,.41-42,0-20.88-.32-18.77-.94-34-1-23.09-.1-21.85,1.64-43,1-10.19-.31-14.04-.88-27-1-8.67-.08-19.31,.05-21.51,.08-5.28,.07-8.38,.12-12.88,.23-8.98,.23-14.13,.51-24.6,.69-2.3,.04-.93,0-34,0h-54c-6,0-12,0-18,0-5.33,0-10.67,0-16,0h-25c-8,0-16.05-.9-24,0-2.32,.26-7.39,.93-14,0-4.41-.62-6.62-.93-8-2Z"/><path class="cls-2" d="M.46,501.24c1.62-1.74,6.02,2.26,15,3,1.45,.12,6.21,.42,12-1,2.65-.65,4.6-1.43,6-2,4.04-1.64,5.3-2.73,11-6,2.37-1.36,.34-.13,14-7,3.42-1.72,4.46-2.26,6-2,4.26,.7,6.87,6.51,8,9,.44,.96,.96,2.64,2,6,.96,3.1,1.13,3.97,1,5-.32,2.56-2.2,4.28-3,5-12.14,11.05-60.89,24.1-45,20h0c.9,5.96,1,7,1,7,.37,3.79-.2,3.55,0,8,.24,5.51,1.12,6.21,1,11-.08,3.14-.47,3.56,0,4,1.75,1.64,8.6-2.67,25-11,3.26-1.66,6.16-3.08,9-2,2.28,.87,3.52,3.24,6,8,2.44,4.67,3.64,7.07,3,10-.56,2.57-2.21,4.23-3,5-2.74,2.69-5.85,3.2-9,4-5.22,1.33-9.99,4.03-15,6-9.82,3.85-11.74,4.57-13,7-.71,1.36-.8,3.9-1,9-.11,2.81-.03,3.43,0,10,.04,7.45,.05,11.18,0,12-.29,4.49-.72,5.37,0,6,1.81,1.58,6.14-2.59,17-7,6.03-2.45,4.75-1.19,12-4,3.6-1.4,5.84-2.45,9-2,.93,.13,4.07,.58,6,3,1.2,1.5,.63,2.13,2,7,1.03,3.69,1.62,4.27,2,7,.35,2.5,.52,3.74,0,5-.93,2.25-3.36,3.2-9,5-5.03,1.6-7.54,2.4-10,3-3.59,.87-5.25,1.52-17,6-26.29,10.01-33.79,12.75-36,10-.23-.28-.49-2.19-1-6-.33-2.43-.83-6.31-1-8-.9-8.87,0-26,0-26,.67-12.73-.65-10.63-1-39-.14-11.13,.11-7.9,0-22-.23-29.57-.4-44.46-3-50-.55-1.18-2.26-4.64-1-6Z"/><path class="cls-2" d="M88.46,542.24c2.47-9.7,11.38-11.3,25-26,3.29-3.55,9.32-10.53,19-19,3.4-2.97,5.71-4.79,9-5,8.3-.53,17.46,9.52,16,16-.63,2.81-2.86,3.14-9,8-8.45,6.68-6.72,8.02-15,15-8.25,6.96-14.26,9.25-14,14,.06,1.03,.38,1.72,1,3,2.99,6.17,8.46,9.42,11,11,6.85,4.27,12.65,10.02,19,15,0,0,8.14,6.39,12,12,1.66,2.41,3,5,3,5,0,0,0,0,0,0,.59,1.19,1.4,3.47,3,8,.95,2.69,1.11,3.19,1,4-.35,2.66-2.97,4.32-4,5-4.53,2.99-7.75,7.63-12,11-4.98,3.94-8.32,7.29-15,14-15.39,15.45-18.39,24.34-26,24-2.64-.12-4.83-1.29-8-3-3.21-1.72-9.87-5.33-10-10-.05-2.01,1.13-3.15,7-9,1.44-1.43,9.13-9.1,12-12,8.12-8.21,7.59-8.61,11-11,3.67-2.57,5.61-3.05,8-6,1.2-1.48,2.33-3.36,5-6,1.53-1.51,1.79-1.52,2-2,1.31-3.07-6.67-9.28-17-17-10.25-7.67-19.46-16.73-30-24-.53-.37-1.89-1.29-3-3-2.92-4.48-1.45-10.22-1-12Z"/><path class="cls-2" d="M265.46,491.24c-2.26,1.58-2.15,5.28-2,9,.59,14.31,.89,21.46,1,22,2.16,10.2,1.44,22.13,0,46-.36,6.01-4.66,73.48-2,83,.17,.62,.62,2.24,2,3,2.07,1.15,4.62-.57,8-2,8.44-3.57,11.43-.87,14-4,1.59-1.94,1.39-5.29,1-12-.14-2.42-.4-4.43-1-12-.28-3.55-.44-5.88,1-8,1.17-1.72,2.74-2.35,4-3,3.89-2.01,4.98-4.27,10-10,2.71-3.1,6.14-6.4,13-13,7.51-7.23,7.36-6.45,13-12,9.02-8.89,7.06-8.59,14-15,1.09-1.01,7-6.43,12-13,.92-1.21,2.69-3.61,3-7,0,0,.27-2.91-1-6-3.18-7.75-19.25-14.38-36-24-10.06-5.78-19-11-19-11-4.82-2.82-8.48-4.98-14-7-2.22-.81-5.14-1.54-11-3-7.22-1.8-8.76-1.87-10-1Z"/><path class="cls-1" d="M291.46,527.24c-2.97,.83-1.69,11.04-2,26-.38,18.37-2.78,24.69,0,26,4.34,2.04,15.07-11.01,20-17,0,0,3.97-4.84,10-13h0c3.94-3.53,4-4,4-4,.43-3.18-9.33-7.23-16-10-5.27-2.19-7.25-2.54-11-5-3.25-2.13-3.93-3.3-5-3Z"/><path class="cls-2" d="M480.46,539.24c4.55-6.76,9.69-11.01,12-13,5.64-4.86,2.69-3.36,16-17,16.26-16.67,19.49-17.71,22-17,1.44,.41,1.03,.93,10,10,3.18,3.22,3.83,3.76,4,5,.49,3.69-4.35,5.97-12,13-6.96,6.4-5.13,6.52-13,14-7.68,7.3-10.84,8.53-11,12-.14,2.97,2.03,5.21,9,11,5.28,4.39,21.29,17.45,29,24,1.77,1.5,5.43,4.68,8,10,1.16,2.41,3.21,6.64,2,11-1.09,3.94-4.29,6.03-7,8-6.29,4.58-11.29,10.71-17,16-10.64,9.87-15.96,14.8-21,21-5.32,6.54-6.33,9.09-10,10-7.79,1.94-18.88-5.68-19-13-.05-3.3,2.63-6.2,8-12,1.8-1.95,3.59-3.68,11-10,6.14-5.23,9.2-7.7,14-12,9.62-8.62,9.95-10.03,10-11,.22-3.93-3.67-6.04-17-17-2.43-2,.47,.35-16-14,0,0-3.7-3.23-13-15-.55-.7-1.58-2.03-2-4-.81-3.8,1.2-7.32,3-10Z"/><path class="cls-2" d="M558.91,540.34c4.55-6.76,9.69-11.01,12-13,5.64-4.86,2.69-3.36,16-17,16.26-16.67,19.49-17.71,22-17,1.44,.41,1.03,.93,10,10,3.18,3.22,3.83,3.76,4,5,.49,3.69-4.35,5.97-12,13-6.96,6.4-5.13,6.52-13,14-7.68,7.3-10.84,8.53-11,12-.14,2.97,2.03,5.21,9,11,5.28,4.39,21.29,17.45,29,24,1.77,1.5,5.43,4.68,8,10,1.16,2.41,3.21,6.64,2,11-1.09,3.94-4.29,6.03-7,8-6.29,4.58-11.29,10.71-17,16-10.64,9.87-15.96,14.8-21,21-5.32,6.54-6.33,9.09-10,10-7.79,1.94-18.88-5.68-19-13-.05-3.3,2.63-6.2,8-12,1.8-1.95,3.59-3.68,11-10,6.14-5.23,9.2-7.7,14-12,9.62-8.62,9.95-10.03,10-11,.22-3.93-3.67-6.04-17-17-2.43-2,.47,.35-16-14,0,0-3.7-3.23-13-15-.55-.7-1.58-2.03-2-4-.81-3.8,1.2-7.32,3-10Z"/><path class="cls-2" d="M649.46,549.24c-5.61,3.18,.43,17.07,2,43,1.36,22.49,2.04,33.73,0,43-1.21,5.47-3.46,13.27,0,16,2.91,2.3,6.76-1.45,16,0,5,.79,7.23,2.41,9,1,1.63-1.3,1.21-3.86,1-10-.14-4,.18-8,0-12-.52-11.36,.9-13.4,1-30,.06-9.83-.4-15.96-1-24-1.48-19.79-2.38-8.7-3-18-.12-1.73-.23-4.21-2-6-1.97-1.99-4.72-1.85-9-2-11.53-.4-12.09-2.08-14-1Z"/><path class="cls-2" d="M641.46,514.24c.23,1.23,2.82,2.84,8,6,5.44,3.33,7.16,3.87,9,4,2.66,.19,4.71-.53,6-1,4.1-1.49,5.63-3.72,11-9,7.17-7.05,9.24-7.79,9-10-.24-2.25-2.5-2.32-8-7-5.99-5.09-6.95-8.08-10-8-1.22,.03-2.19,.54-6,4-4.7,4.27-7.66,7.52-10,10-7.4,7.85-9.4,8.87-9,11Z"/><path class="cls-2" d="M707.46,501.24c-1.35,3.59-.47,6.89,0,9,1.54,6.84,.57,14.01,1,21,.17,2.81,.35,6.71,0,26-.47,26.02-.86,23.7-1,38-.53,52.62,3.24,40.23,2,47-.25,1.38-.99,5.06,1,8,3.76,5.56,14.32,4.1,15,4,2.93-.44,5.15-1.36,13-6,6.95-4.11,10.9-6.76,16-10,8.8-5.59,8.4-4.91,18-11,14.41-9.14,7.73-5.88,16-11,6.34-3.93,8.82-5.54,10-9,.84-2.46,.02-3.13,0-11-.02-7.68,.76-7.81,0-10-1.32-3.8-4.2-4.98-11-10-2.72-2.01-6.57-5-11-9-2.66-1.86-3.99-2.66-4-4-.01-1.63,1.94-2.96,10-7,9.44-4.73,10.71-4.88,12-7,1.88-3.1,1.52-6.67,1-12-.48-4.88-1.67-6.56-2-7-2.19-2.92-5.69-3.68-7-4-6.36-1.56-12.57-6.04-25-15-6.77-4.88-13.03-10.62-20-17-5.8-5.32-11.13-10.55-15-9-2.3,.92-2.07,3.44-6,6-2.97,1.94-3.92,1.04-7,3-1.03,.65-4.51,3.04-6,7Z"/><path class="cls-2" d="M822.46,489.24c-2.03,26.42-2.22,47.53-2,62,.41,27.54,2.3,33.45,1,51-.69,9.31,.97,18.72,0,28-.22,2.1-.94,8.41,2,15,1.09,2.44,2.71,5.96,6,7,2.34,.74,3.82-.32,10-2,4.7-1.28,4.75-.91,9-2,5.73-1.47,9.12-3.04,14-5,2.49-1,10.94-4.38,20-7,12.28-3.56,17.59-3.39,20-8,1.3-2.5,1.12-5.18,1-7-.45-6.7-5-13-5-13h0s-5.12-.82-7-1c-1.76-.17-3.96-.11-15,4-7.29,2.71-7.3,3.05-13,5-5.52,1.89-5.6,1.61-9,3-4,1.64-4.99,2.48-6,2-2.41-1.15-.88-7.92,0-16,.77-7.11,.51-15.07,0-31-.07-2.12-.02-.06-1-19-.82-15.77-.93-18.82-1-23-.15-9.62,0-17,0-17,.1-5-.22-10.01,0-15,.27-5.92,.7-8.33-1-10-1.66-1.63-3.98-1.23-10-1-3.11,.12-7.56,.2-13,0Z"/><path class="cls-2" d="M900.46,572.24c-1.24-7.4,5.66-12.34,17-27,5.29-6.84,8.53-11.89,15-22,6.83-10.67,16.36-19.65,22-31,.59-1.19,2.18-4.51,5-5,1.04-.18,1.85,.09,7,3,5.17,2.92,6.64,3.94,8,5,2.54,1.98,3.81,2.97,4,4,.5,2.74-3.06,4.56-7,10-2.05,2.83-1.3,2.64-4,7-3,4.85-4.75,6.51-8,11-3.7,5.11-3.32,5.54-7,11-1.71,2.53-5.83,7.72-14,18-3.32,4.18-6.11,7.66-7,13-.25,1.47-.57,3.53,0,6,1.13,4.89,4.83,7.35,9,11,3.64,3.18,6.43,6.45,12,13,4.05,4.75,6.72,8.53,12,16,5.45,7.7,4.96,7.59,9,13,8.43,11.29,9,12,9,12,4.48,5.58,6.81,7.9,6,10-.61,1.6-2.68,2.13-6,3,0,0-3.36,.88-12,1h0s-3.67,1.34-6,1c-2.99-.43-4.69-3.77-6-6-3.11-5.3-8.13-9.22-12-14-12.44-15.36-10.59-12.89-13-16-6.08-7.83-10.49-14.04-14-19-6.2-8.76-5.02-7.57-11-16-7.24-10.21-7.7-10.18-8-12Z"/><path class="cls-2" d="M940.46,572.24c1.69,3.1,3.67,3.21,6,6,1,1.19,2.23,3.08,3,6,0,0,2.46,4.76,7,10,1.79,2.06,2.92,2.87,4,3,1.01,.12,2.4-.19,9-8,3.73-4.42,5.03-6.39,6-9,.67-1.81,1.17-3.19,1-5-.21-2.23-1.23-3.06-5-8-2.31-3.02-4.81-5.9-7-9-1.19-1.68-1.76-2.59-3-3-1.13-.38-2.32-.18-7,2-3.26,1.52-2.92,1.54-6,3-3.67,1.74-5.18,2.2-7,4-1.59,1.57-1.91,2.66-2,3-.54,2.11,.46,4.01,1,5Z"/><path class="cls-1" d="M733.46,522.24c-3.53,1.58-.04,9.7-2,26-.82,6.85-2.19,11.62,0,13,1.06,.67,2.41,.2,7-2,9.35-4.49,14.47-7.71,18-10,6.95-4.51,8.05-5.59,8-7-.07-2.02-2.44-2.68-9-7-6.31-4.15-6.78-5.28-13-9-5.12-3.06-7.7-4.58-9-4Z"/><path class="cls-1" d="M732.46,591.24c.39-.75,1.07-1.83,9-7,6.98-4.55,8.81-5.25,11-5,1.55,.18,2.69,.8,5,2,2.66,1.39,2.87,2.07,7,5,2.79,1.98,3.39,2.31,7,5,4.27,3.18,4.95,3.95,5,5,.08,1.8-1.76,3.27-4,5-3.06,2.37-5.83,3.51-7,4-2.61,1.1-5.74,2.73-12,6-7.21,3.76-10.8,5.67-13,7-3.98,2.41-5.58,3.69-7,3-.55-.27-1.51-1.04-2-8-.4-5.69-.12-10.2,0-12,.57-8.34,.52-9.07,1-10Z"/><path class="cls-2" d="M333.46,676.24c-.99,1.12,2.07,4.88,5,10,1.74,3.04,3.16,6.69,6,14,2.54,6.52,3.54,10.05,7,21,5.83,18.47,5.53,16.56,8,25,3.65,12.48,5.47,18.71,6,24,.63,6.29,.22,9.85,2,17,1,4.03,1.8,5.59,3,11,1.29,5.81,.93,6.52,2,12,.48,2.47,1.88,9.09,5,17,2.02,5.12,3.24,8.22,6,12,2.14,2.93,4.97,6.72,10,9,2.33,1.05,4.49,1.49,7,2,4.42,.89,7.85,.97,9,1,9,.22,17.99,1.14,27,1,16-.25,32,.06,48,0,33.99-.12,50.99-.19,52,0,0,0,12.9,2.38,23,0,.19-.04,1.83-.44,4-1,3.64-.95,5.46-1.42,7-2,3.55-1.34,5.97-3.19,7-4,1.26-.98,4.63-3.79,8-10,2.31-4.26,3.04-7.2,5-14,4.54-15.76,4.6-13.81,6-20,1.6-7.1,.89-6.93,3-20,.74-4.56,1.95-12.04,4-21,1.4-6.12,2.93-11.42,6-22,4.01-13.83,6.01-20.74,8-26,4.21-11.14,6.32-16.7,9-22,3.28-6.49,6.77-12.17,5-14-.81-.83-2.23-.38-5,0-4.23,.58-4.41,0-13,0-16.37,0-48,1-48,1-13.03,.41-28.68,.27-60,0-32.69-.29-34.72-.7-70-1-27.2-.23-40.8-.35-49,0-13.33,.57-26.69,.14-40,1-1.6,.1-3.41,.28-6,0-4.47-.48-6.32-1.77-7-1Z"/><path class="cls-2" d="M392.46,883.24c-.13,1.96,.05,2.01,0,5-.06,3.42-.3,3.68,0,5,.1,.42,.54,2.22,2,4,1.18,1.44,2.43,2.14,4,3,2.29,1.26,4.27,1.81,5,2,5.46,1.44,10.64,1.03,11,1,7.98-.63,16,.17,24,0,7.66-.17,15.33,0,23,0h78c5.32,.3,10.68-.32,16,0,.55,.03,4,.24,8-1,2.04-.63,3.16-1.31,4-2,.41-.33,1.96-1.65,3-4,.95-2.16,.41-2.77,1-7,.6-4.27,1.3-4.67,1-7-.11-.86-.41-2.97-2-5-1.44-1.85-3.19-2.64-4-3-2.69-1.19-5.15-1.04-6-1-5.66,.3-11.37-.63-17,0-16.23,1.82-32.67,0-49,0h-85c-1.03-.18-4.18-.76-8,0-2.05,.41-3.63,1.07-5,2-.91,.62-2.13,1.45-3,3-.73,1.31-.83,2.56-1,5Z"/><path class="cls-2" d="M394.18,927.24c-.13,1.96,.05,2.01,0,5-.06,3.42-.3,3.68,0,5,.1,.42,.54,2.22,2,4,1.18,1.44,2.43,2.14,4,3,2.29,1.26,4.27,1.81,5,2,5.46,1.44,10.64,1.03,11,1,7.98-.63,16,.17,24,0,7.66-.17,15.33,0,23,0h78c5.32,.3,10.68-.32,16,0,.55,.03,4,.24,8-1,2.04-.63,3.16-1.31,4-2,.41-.33,1.96-1.65,3-4,.95-2.16,.41-2.77,1-7,.6-4.27,1.3-4.67,1-7-.11-.86-.41-2.97-2-5-1.44-1.85-3.19-2.64-4-3-2.69-1.19-5.15-1.04-6-1-5.66,.3-11.37-.63-17,0-16.23,1.82-32.67,0-49,0h-85c-1.03-.18-4.18-.76-8,0-2.05,.41-3.63,1.07-5,2-.91,.62-2.13,1.45-3,3-.73,1.31-.83,2.56-1,5Z"/><path class="cls-2" d="M407.16,977.13c-.12,1.68,.04,1.72,0,4.28-.05,2.92-.26,3.15,0,4.28,.08,.36,.47,1.9,1.71,3.43,1.01,1.23,2.08,1.83,3.43,2.57,1.96,1.08,3.65,1.55,4.28,1.71,4.68,1.23,9.11,.88,9.42,.86,6.83-.54,13.7,.15,20.55,0,6.56-.14,13.13,0,19.69,0h66.79c4.56,.26,9.14-.27,13.7,0,.47,.03,3.42,.21,6.85-.86,1.74-.54,2.7-1.13,3.43-1.71,.35-.28,1.68-1.41,2.57-3.43,.88-1.99,.88-3.69,.86-5.99-.02-2.31-.38-4.04-.62-5.14-.64-2.97-1.51-4.75-1.71-5.14-.67-1.33-1.01-2-1.71-2.57-1.8-1.46-4.4-1.01-5.37-.86-4.8,.74-9.73-.54-14.56,0-13.9,1.56-27.97,0-41.96,0h-72.78c-.88-.15-3.58-.65-6.85,0-1.76,.35-3.11,.92-4.28,1.71-.78,.53-1.83,1.24-2.57,2.57-.63,1.13-.71,2.19-.86,4.28Z"/><path class="cls-2" d="M423.46,656.24c4.59-1.53,6.34-7.88,7-10,.05-.16-.4,1.31,18-27,14.25-21.92,27-42,27-42h0s1.75-3.16,2-6c.12-1.4-.1-2.91-1-5-4.64-10.78-12-18-12-18-7.5-7.35-2.62-5.52-21-30-14.72-19.6-13.45-14.92-16-20-.97-1.93-3.53-7.34-9-10-3.36-1.63-5.55-1.12-6-1-2.85,.75-4.34,3.31-6,6-2.52,4.09-5.59,7.84-8,12-6.48,11.2-7.82,9.81-15,22-3.4,5.78-3.7,7.11-7,12-3.55,5.26-4.26,5.28-8,11-5.1,7.8-3.51,7.35-7,12-.9,1.2-2.41,3.1-3,6,0,0-.48,2.38,0,5,1.85,10.01,11,21,11,21,9.23,11.09,15.92,24.06,24,36,2.95,4.37,6.54,8.34,9,13,2.49,4.73,3.79,8.65,8,11,2.43,1.35,5.27,1.87,6,2,1.46,.26,4.59,.81,7,0Z"/><path class="cls-1" d="M387.46,571.24c11.69-18.37,19-33,19-33s5.43-10.87,7-10c.05,.03,.12,.14,.25,.14,.37,0,.43-1.04,.75-1.14,1.47-.45,4.18,4.53,5,6,1.48,2.65,32.71,45.22,27,37h0s.58,.58,1,1c1.05,1.05,2,2,2,2h0c-3.89,6.72-7.92,13.48-16,27-8.93,14.95-10.98,18.12-14,18-3.13-.12-4.59-3.67-10-13-6.77-11.68-14.88-22.53-22-34Z"/><path class="cls-2" d="M424.46,1012.24c-.51,.79,.48,2.01,2,5,1.93,3.8,1.42,4.13,3,7,.63,1.14,2.25,3.95,5,7,3.18,3.54,6.12,5.46,10,8,3.68,2.41,6.63,4.34,11,6,2.06,.78,5.37,1.52,12,3,5.22,1.17,7.88,1.75,10,2,4.04,.47,7.08,.26,12,0,4.31-.23,6.52-.36,9-1,1.75-.45,3.83-1.3,8-3,2.03-.83,4.17-1.7,7-3,3.46-1.58,5.41-2.48,8-4,2.78-1.63,4.75-3.08,6-4,2.21-1.63,3.96-2.92,6-5,1.75-1.79,2.95-3,4-5,.46-.87,.27-.72,2-6,.86-2.63,1.86-5.58,1.99-5.96,0,0,.02-.02,.01-.04-.04-.57-10.68-.17-18,0h-57c-14.73,.22-16.57,.58-22,0-4.98-.53-10.1,.06-15-1-1.68-.36-4.33-1.03-5,0Z"/><path class="cls-2" d="M454.46,23.24c1.33-5.1,3.35-8.08,4-9,2.09-2.94,4.3-4.69,6-6,3.06-2.37,5.94-3.63,9-5,2.23-1,3.34-1.5,5-2,1.19-.36,6.25-1.81,13-1,2.31,.28,4.89,.59,8,2,3.94,1.79,6.36,4.28,8,6,1.52,1.59,3.5,3.66,5,7,1.45,3.23,1.73,6.02,2,9,.31,3.42,.12,5.82,0,8V120.24c0,9,0,18,0,27,0,.66,0,2.08,0,4,0,5.13,0,7.69,.02,9.95,.03,3.7,.06,5.42,.02,8.78-.01,1.18-.04,2.05-.04,2.26-.07,2.67-.01,7.14,0,13,.01,5.89-.04,5.37,0,7,.02,.69,.07,2.84,0,5.73,0,.11,0,.21,0,.27,0,0-61,1-61,1V56.24c-.13-6.67,.27-13.34,0-20-.14-3.55-.39-7.7,1-13Z"/><path class="cls-2" d="M683.98,72.62c3.68-3.78,6.9-5.38,7.92-5.86,3.27-1.53,6.05-1.95,8.18-2.26,3.83-.55,6.95-.23,10.3,.09,2.43,.23,3.65,.35,5.34,.73,1.21,.27,6.33,1.51,11.8,5.54,1.88,1.38,3.97,2.92,5.97,5.69,2.54,3.5,3.42,6.86,4,9.17,.54,2.13,1.24,4.91,.9,8.56-.33,3.53-1.46,6.09-2.7,8.82-1.42,3.13-2.77,5.12-3.95,6.96l-7.4,13.05c-4.44,7.83-8.88,15.66-13.32,23.49-2.96,5.22-5.92,10.44-8.88,15.66-4.6,8.12-9.21,16.24-13.81,24.36-4.44,7.83-8.87,15.66-13.32,23.49-.33,.57-1.03,1.81-1.97,3.48-2.53,4.46-3.79,6.69-4.89,8.67-1.8,3.23-2.62,4.74-4.32,7.65-.59,1.02-1.04,1.76-1.15,1.95-1.37,2.29-3.53,6.21-6.41,11.31-2.9,5.13-2.68,4.65-3.45,6.09-.33,.61-1.34,2.5-2.82,4.99-.06,.1-.11,.18-.14,.23,0,0-53.55-29.22-53.55-29.22l3.95-6.96c1.48-2.61,2.96-5.22,4.44-7.83,2.47-4.35,4.93-8.7,7.4-13.05,4.11-7.25,8.22-14.5,12.33-21.75,5.26-9.28,10.52-18.56,15.79-27.84,4.44-7.83,8.88-15.66,13.32-23.49,8.88-15.66,13.32-23.49,13.32-23.49,3.17-5.86,6.81-11.47,9.87-17.4,1.63-3.15,3.46-6.89,7.28-10.81Z"/><path class="cls-2" d="M866.53,229.04c5.09-1.38,8.67-1.11,9.8-1.01,3.59,.34,6.2,1.4,8.19,2.22,3.58,1.48,6.1,3.35,8.81,5.32,1.97,1.44,2.96,2.15,4.22,3.34,.9,.85,4.68,4.52,7.33,10.78,.91,2.15,1.93,4.54,2.24,7.93,.4,4.31-.55,7.65-1.23,9.92-.62,2.1-1.44,4.86-3.59,7.82-2.08,2.87-4.36,4.49-6.81,6.21-2.81,1.97-4.99,3-6.94,3.98l-13.01,7.46c-7.81,4.48-15.62,8.95-23.42,13.43l-15.62,8.95c-8.1,4.64-16.19,9.28-24.29,13.93-7.81,4.48-15.61,8.96-23.42,13.43-.57,.33-1.8,1.03-3.47,1.99-4.45,2.55-6.67,3.83-8.62,4.97-3.19,1.86-4.67,2.75-7.61,4.39-1.03,.58-1.79,.98-1.98,1.09-2.35,1.27-6.2,3.54-11.28,6.47-5.11,2.94-4.67,2.64-6.07,3.48-.59,.36-2.43,1.47-4.97,2.85-.1,.05-.18,.1-.24,.13,0,0-31.21-52.42-31.21-52.42,2.31-1.33,4.63-2.65,6.94-3.98,2.6-1.49,5.21-2.98,7.81-4.48,4.34-2.49,8.68-4.97,13.01-7.46,7.23-4.14,14.46-8.29,21.69-12.43,9.25-5.31,18.51-10.61,27.76-15.92,7.81-4.48,15.62-8.95,23.42-13.43,15.62-8.95,23.42-13.43,23.42-13.43,5.72-3.43,11.7-6.4,17.35-9.95,3.01-1.89,6.49-4.17,11.78-5.6Z"/><path class="cls-2" d="M230.86,104.69c-1.43-5.07-1.2-8.66-1.11-9.79,.31-3.6,1.34-6.22,2.14-8.21,1.44-3.6,3.28-6.13,5.23-8.87,1.42-1.99,2.12-2.98,3.3-4.26,.84-.91,4.47-4.72,10.71-7.44,2.14-.93,4.52-1.97,7.91-2.32,4.3-.45,7.65,.47,9.94,1.13,2.11,.6,4.87,1.39,7.86,3.51,2.89,2.05,4.54,4.31,6.28,6.75,2,2.79,3.05,4.96,4.05,6.9l7.59,12.94c4.56,7.76,9.11,15.52,13.67,23.29,3.04,5.17,6.07,10.35,9.11,15.52,4.72,8.05,9.45,16.1,14.17,24.15,4.56,7.76,9.11,15.52,13.67,23.29,.33,.57,1.05,1.79,2.02,3.45,2.6,4.42,3.9,6.63,5.06,8.57,1.9,3.18,2.79,4.65,4.46,7.57,.59,1.02,1,1.78,1.11,1.97,1.29,2.34,3.6,6.16,6.58,11.21,2.99,5.08,2.68,4.65,3.54,6.04,.36,.59,1.5,2.41,2.9,4.94,.06,.1,.1,.18,.13,.24,0,0-52.1,31.74-52.1,31.74l-4.05-6.9-4.56-7.76-7.59-12.94-12.65-21.56c-5.4-9.2-10.8-18.4-16.2-27.6-4.56-7.76-9.11-15.52-13.67-23.29l-13.67-23.29c-3.49-5.68-6.52-11.64-10.12-17.25-1.92-2.99-4.23-6.45-5.72-11.72Z"/><path class="cls-2" d="M71.88,281.63c-3.78-3.68-5.37-6.9-5.85-7.92-1.53-3.27-1.95-6.05-2.25-8.18-.55-3.84-.22-6.95,.1-10.3,.23-2.43,.35-3.65,.73-5.34,.27-1.21,1.51-6.33,5.55-11.8,1.38-1.88,2.93-3.96,5.69-5.97,3.5-2.54,6.86-3.42,9.17-3.99,2.13-.53,4.91-1.23,8.56-.89,3.53,.33,6.09,1.47,8.81,2.71,3.13,1.42,5.12,2.77,6.96,3.95l13.04,7.41c7.83,4.44,15.65,8.89,23.48,13.33,5.22,2.96,10.43,5.93,15.65,8.89,8.12,4.61,16.23,9.22,24.35,13.83s15.65,8.88,23.48,13.33c.57,.33,1.8,1.03,3.48,1.98,4.46,2.53,6.69,3.79,8.67,4.9,3.23,1.8,4.74,2.63,7.65,4.32,1.02,.59,1.76,1.04,1.94,1.15,2.29,1.38,6.2,3.54,11.3,6.42,5.13,2.9,4.65,2.68,6.09,3.46,.61,.33,2.5,1.34,4.98,2.82,.1,.06,.18,.11,.23,.14,0,0-29.25,53.54-29.25,53.54l-6.96-3.95-7.83-4.44-13.04-7.41c-7.25-4.12-14.49-8.23-21.74-12.35-9.28-5.27-18.55-10.54-27.83-15.8-7.83-4.44-15.65-8.89-23.48-13.33-15.65-8.89-23.48-13.33-23.48-13.33-5.86-3.18-11.47-6.82-17.39-9.88-3.15-1.63-6.89-3.47-10.81-7.29Z"/></g></g></svg>